<svg id="visual" viewBox="0 0 960 540" width="960" height="540" xmlns="http://www.w3.org/2000/svg" xmlns:xlink="http://www.w3.org/1999/xlink" version="1.1"><rect x="0" y="0" width="960" height="540" fill="#001220"></rect><defs><linearGradient id="grad1_0" x1="43.8%" y1="0%" x2="100%" y2="100%"><stop offset="14.444444444444446%" stop-color="#fbae3c" stop-opacity="1"></stop><stop offset="85.55555555555554%" stop-color="#fbae3c" stop-opacity="1"></stop></linearGradient></defs><defs><linearGradient id="grad1_1" x1="43.8%" y1="0%" x2="100%" y2="100%"><stop offset="14.444444444444446%" stop-color="#fbae3c" stop-opacity="1"></stop><stop offset="85.55555555555554%" stop-color="#96446e" stop-opacity="1"></stop></linearGradient></defs><defs><linearGradient id="grad1_2" x1="43.8%" y1="0%" x2="100%" y2="100%"><stop offset="14.444444444444446%" stop-color="#001220" stop-opacity="1"></stop><stop offset="85.55555555555554%" stop-color="#96446e" stop-opacity="1"></stop></linearGradient></defs><defs><linearGradient id="grad2_0" x1="0%" y1="0%" x2="56.3%" y2="100%"><stop offset="14.444444444444446%" stop-color="#fbae3c" stop-opacity="1"></stop><stop offset="85.55555555555554%" stop-color="#fbae3c" stop-opacity="1"></stop></linearGradient></defs><defs><linearGradient id="grad2_1" x1="0%" y1="0%" x2="56.3%" y2="100%"><stop offset="14.444444444444446%" stop-color="#96446e" stop-opacity="1"></stop><stop offset="85.55555555555554%" stop-color="#fbae3c" stop-opacity="1"></stop></linearGradient></defs><defs><linearGradient id="grad2_2" x1="0%" y1="0%" x2="56.3%" y2="100%"><stop offset="14.444444444444446%" stop-color="#96446e" stop-opacity="1"></stop><stop offset="85.55555555555554%" stop-color="#001220" stop-opacity="1"></stop></linearGradient></defs><g transform="translate(960, 0)"><path d="M0 216C-21.5 194.4 -43 172.7 -67.4 162.6C-91.7 152.5 -118.8 153.8 -142.8 142.8C-166.9 131.8 -187.9 108.5 -199.6 82.7C-211.2 56.8 -213.6 28.4 -216 0L0 0Z" fill="#3d3056"></path><path d="M0 144C-14.3 129.6 -28.7 115.2 -44.9 108.4C-61.1 101.6 -79.2 102.5 -95.2 95.2C-111.3 87.9 -125.2 72.3 -133 55.1C-140.8 37.9 -142.4 18.9 -144 0L0 0Z" fill="#e1685e"></path><path d="M0 72C-7.2 64.8 -14.3 57.6 -22.5 54.2C-30.6 50.8 -39.6 51.3 -47.6 47.6C-55.6 43.9 -62.6 36.2 -66.5 27.6C-70.4 18.9 -71.2 9.5 -72 0L0 0Z" fill="#fbae3c"></path></g><g transform="translate(0, 540)"><path d="M0 -216C30.5 -215.6 61.1 -215.2 82.7 -199.6C104.2 -184 116.8 -153.2 130.1 -130.1C143.4 -107 157.4 -91.6 171.8 -71.2C186.3 -50.8 201.1 -25.4 216 0L0 0Z" fill="#3d3056"></path><path d="M0 -144C20.4 -143.7 40.7 -143.4 55.1 -133C69.5 -122.6 77.9 -102.1 86.7 -86.7C95.6 -71.3 104.9 -61.1 114.6 -47.5C124.2 -33.8 134.1 -16.9 144 0L0 0Z" fill="#e1685e"></path><path d="M0 -72C10.2 -71.9 20.4 -71.7 27.6 -66.5C34.7 -61.3 38.9 -51.1 43.4 -43.4C47.8 -35.7 52.5 -30.5 57.3 -23.7C62.1 -16.9 67 -8.5 72 0L0 0Z" fill="#fbae3c"></path></g></svg>