<svg id="visual" viewBox="0 0 960 540" width="960" height="540" xmlns="http://www.w3.org/2000/svg" xmlns:xlink="http://www.w3.org/1999/xlink" version="1.1"><rect x="0" y="0" width="960" height="540" fill="#001220"></rect><path d="M0 411L137 411L137 421L274 421L274 430L411 430L411 430L549 430L549 415L686 415L686 427L823 427L823 411L960 411L960 409L960 541L960 541L823 541L823 541L686 541L686 541L549 541L549 541L411 541L411 541L274 541L274 541L137 541L137 541L0 541Z" fill="#fbae3c"></path><path d="M0 449L137 449L137 433L274 433L274 417L411 417L411 446L549 446L549 421L686 421L686 437L823 437L823 420L960 420L960 443L960 541L960 541L823 541L823 541L686 541L686 541L549 541L549 541L411 541L411 541L274 541L274 541L137 541L137 541L0 541Z" fill="#fd843d"></path><path d="M0 455L137 455L137 435L274 435L274 460L411 460L411 464L549 464L549 435L686 435L686 436L823 436L823 446L960 446L960 446L960 541L960 541L823 541L823 541L686 541L686 541L549 541L549 541L411 541L411 541L274 541L274 541L137 541L137 541L0 541Z" fill="#f6584a"></path><path d="M0 459L137 459L137 467L274 467L274 473L411 473L411 470L549 470L549 480L686 480L686 473L823 473L823 480L960 480L960 477L960 541L960 541L823 541L823 541L686 541L686 541L549 541L549 541L411 541L411 541L274 541L274 541L137 541L137 541L0 541Z" fill="#e4245c"></path><path d="M0 492L137 492L137 489L274 489L274 485L411 485L411 488L549 488L549 482L686 482L686 471L823 471L823 488L960 488L960 480L960 541L960 541L823 541L823 541L686 541L686 541L549 541L549 541L411 541L411 541L274 541L274 541L137 541L137 541L0 541Z" fill="#c50070"></path><path d="M0 493L137 493L137 506L274 506L274 513L411 513L411 494L549 494L549 509L686 509L686 506L823 506L823 510L960 510L960 510L960 541L960 541L823 541L823 541L686 541L686 541L549 541L549 541L411 541L411 541L274 541L274 541L137 541L137 541L0 541Z" fill="#980083"></path><path d="M0 518L137 518L137 518L274 518L274 509L411 509L411 512L549 512L549 525L686 525L686 521L823 521L823 525L960 525L960 510L960 541L960 541L823 541L823 541L686 541L686 541L549 541L549 541L411 541L411 541L274 541L274 541L137 541L137 541L0 541Z" fill="#560090"></path></svg>